<?xml version="1.0" encoding="utf-8"?>
<!-- Generator: Adobe Illustrator 19.0.0, SVG Export Plug-In . SVG Version: 6.00 Build 0)  -->
<svg version="1.1" id="Layer_1" xmlns="http://www.w3.org/2000/svg" xmlns:xlink="http://www.w3.org/1999/xlink" x="0px" y="0px"
	 viewBox="37 0 500 500" style="enable-background:new 37 0 500 500;" xml:space="preserve">
<style type="text/css">
	.st0{fill:#FFFFFF;}
	.st1{fill:#675F58;}
	.st2{fill:#FF931E;}
</style>
<g id="network-server">
	<g>
		<circle class="st0" cx="287" cy="250" r="250"/>
		<g id="_x33_3">
			<g>
				<path class="st1" d="M361.2,147.2H212.8c-13.8,0-24.9,11.2-24.9,24.9c0,13.8,11.2,25,24.9,25h148.4c13.8,0,25-11.2,25-25
					C386.1,158.4,375,147.2,361.2,147.2z M357.9,180.7c-4.7,0-8.5-3.8-8.5-8.5c0-4.7,3.8-8.5,8.5-8.5c4.7,0,8.5,3.8,8.5,8.5
					C366.4,176.9,362.6,180.7,357.9,180.7z"/>
				<path class="st1" d="M361.2,202.7H212.8c-13.8,0-24.9,11.2-24.9,24.9s11.2,24.9,24.9,24.9h148.4c13.8,0,25-11.2,25-24.9
					S375,202.7,361.2,202.7z M357.9,236.2c-4.7,0-8.5-3.8-8.5-8.5s3.8-8.5,8.5-8.5c4.7,0,8.5,3.8,8.5,8.5S362.6,236.2,357.9,236.2z"
					/>
				<path class="st1" d="M361.2,258.2H212.8c-13.8,0-24.9,11.2-24.9,24.9s11.2,25,24.9,25h148.4c13.8,0,25-11.2,25-25
					S375,258.2,361.2,258.2z M357.9,291.6c-4.7,0-8.5-3.8-8.5-8.5s3.8-8.5,8.5-8.5c4.7,0,8.5,3.8,8.5,8.5
					C366.4,287.8,362.6,291.6,357.9,291.6z"/>
			</g>
			<g>
				<rect x="244.8" y="333.7" class="st2" width="84.5" height="19.1"/>
				<rect x="281.3" y="314" class="st2" width="11.4" height="28.6"/>
			</g>
			<g>
				<rect x="171.8" y="339.7" class="st2" width="67.7" height="6.3"/>
				<rect x="334.5" y="339.7" class="st2" width="67.7" height="6.3"/>
			</g>
		</g>
	</g>
</g>
<g id="Layer_1_1_">
</g>
</svg>
